<svg width="275" height="80" viewBox="0 0 275 80" fill="none" xmlns="http://www.w3.org/2000/svg">
<path d="M274.566 71.6801L269.814 74.4641L262.566 78.6401C261.446 79.2801 260.262 79.6001 259.014 79.6001H240.15C238.102 79.6001 236.198 79.0881 234.438 78.0641C232.71 77.0401 231.334 75.6641 230.31 73.9361C229.286 72.1761 228.774 70.2721 228.774 68.2241C228.774 65.0881 229.878 62.4161 232.086 60.2081C234.326 57.9681 237.014 56.8481 240.15 56.8481H274.566V61.3601L273.558 61.9841L270.678 63.6161L263.43 67.8401C262.342 68.4481 261.158 68.7521 259.878 68.7521H233.958C234.086 70.3521 234.742 71.7121 235.926 72.8321C237.142 73.9201 238.55 74.4641 240.15 74.4641H265.686C266.966 74.4641 268.15 74.1441 269.238 73.5041L274.566 70.4321V71.6801ZM240.15 61.9841C238.55 61.9841 237.142 62.5441 235.926 63.6641C234.742 64.7521 234.086 66.0801 233.958 67.6481H259.59C260.838 67.6481 262.022 67.3441 263.142 66.7361L266.646 64.6721L271.35 61.9841H240.15Z" fill="#4A4C4E"/>
<path d="M160.393 67.0721L169.225 61.9841L176.473 57.8081C177.561 57.1681 178.729 56.8481 179.977 56.8481H180.313C183.225 56.8481 185.753 57.8401 187.897 59.8241C190.073 61.7761 191.321 64.1921 191.641 67.0721H191.689L200.473 61.9841L207.721 57.8081C208.841 57.1681 210.025 56.8481 211.273 56.8481H211.609C214.713 56.8481 217.385 57.9681 219.625 60.2081C221.865 62.4161 222.985 65.0881 222.985 68.2241V79.6001H217.849V68.2241C217.849 67.1041 217.561 66.0641 216.985 65.1041C216.441 64.1441 215.689 63.3921 214.729 62.8481C213.769 62.2721 212.729 61.9841 211.609 61.9841H204.601C203.321 61.9841 202.137 62.3041 201.049 62.9441L195.241 66.2561C194.665 66.6081 194.153 67.0082 193.705 67.4562C193.289 67.8722 192.921 68.3521 192.601 68.8961C192.313 69.4081 192.089 69.9681 191.929 70.5761C191.769 71.1521 191.689 71.7602 191.689 72.4002V79.6001H186.553V68.2241C186.553 66.4961 185.929 65.0241 184.681 63.8081C183.465 62.5921 182.009 61.9841 180.313 61.9841H173.305C172.025 61.9841 170.841 62.3041 169.753 62.9441L163.945 66.2561C162.825 66.9281 161.945 67.8081 161.305 68.8961C160.697 69.9521 160.393 71.1202 160.393 72.4002V79.6001H155.257V56.8481H160.393V67.0721Z" fill="#4A4C4E"/>
<path d="M142.496 69.3761L133.712 74.4641L126.464 78.6401C125.376 79.2801 124.192 79.6001 122.912 79.6001H113.216C110.08 79.6001 107.392 78.4962 105.152 76.2882C102.944 74.0482 101.84 71.3601 101.84 68.2241C101.84 65.0881 102.944 62.4161 105.152 60.2081C107.392 57.9681 110.08 56.8481 113.216 56.8481H147.632V79.6001H142.496V69.3761ZM113.216 74.4641H129.584C130.864 74.4641 132.048 74.1441 133.136 73.5041L138.944 70.1441C139.712 69.7281 140.352 69.2161 140.864 68.6081C141.408 67.9681 141.808 67.2641 142.064 66.4961C142.352 65.6961 142.496 64.8641 142.496 64.0001V61.9841H113.216C112.384 61.9841 111.584 62.1441 110.816 62.4641C110.048 62.7841 109.376 63.2321 108.8 63.8081C108.256 64.3521 107.808 65.0241 107.456 65.8241C107.136 66.5921 106.976 67.3921 106.976 68.2241C106.976 69.9201 107.584 71.3921 108.8 72.6401C110.048 73.8561 111.52 74.4641 113.216 74.4641Z" fill="#4A4C4E"/>
<path d="M59.3344 67.0721L68.1664 61.9841L75.4144 57.8081C76.5024 57.1681 77.6864 56.8481 78.9664 56.8481H98.1184V61.9841H72.2464C70.9664 61.9841 69.7824 62.3041 68.6944 62.9441L62.8864 66.2561C61.7664 66.9281 60.8864 67.8081 60.2464 68.8961C59.6384 69.9521 59.3344 71.1202 59.3344 72.4002V79.6001H54.1984V56.8481H59.3344V67.0721Z" fill="#4A4C4E"/>
<path d="M8.256 58.144C7.584 59.616 7.248 61.168 7.248 62.8V70.432L16.08 65.392L23.328 61.168C24.416 60.56 25.584 60.256 26.832 60.256H47.904V65.392H20.16C18.88 65.392 17.696 65.696 16.608 66.304L10.8 69.664C8.912 70.784 7.776 72.384 7.392 74.464V79.6H2.112V62.8C2.112 59.76 2.864 56.96 4.368 54.4C5.872 51.808 7.904 49.76 10.464 48.256C13.056 46.752 15.872 46 18.912 46H47.904V51.136H18.912C16.576 51.136 14.432 51.792 12.48 53.104C10.56 54.384 9.152 56.064 8.256 58.144Z" fill="#4A4C4E"/>
<path d="M236.139 21.0721L244.971 15.9841L252.219 11.8081C253.307 11.1681 254.491 10.8481 255.771 10.8481H274.923V15.9841H249.051C247.771 15.9841 246.587 16.3041 245.499 16.9441L239.691 20.2561C238.571 20.9281 237.691 21.8081 237.051 22.8961C236.443 23.9521 236.139 25.1201 236.139 26.4001V33.6001H231.003V10.8481H236.139V21.0721Z" fill="#4A4C4E"/>
<path d="M229.538 25.6801L224.786 28.4641L217.538 32.6401C216.418 33.2801 215.234 33.6001 213.986 33.6001H195.122C193.074 33.6001 191.17 33.0881 189.41 32.0641C187.682 31.0401 186.306 29.6641 185.282 27.9361C184.258 26.1761 183.746 24.2721 183.746 22.2241C183.746 19.0881 184.85 16.4161 187.058 14.2081C189.298 11.9681 191.986 10.8481 195.122 10.8481H229.538V15.3601L228.53 15.9841L225.65 17.6161L218.402 21.8401C217.314 22.4481 216.13 22.7521 214.85 22.7521H188.93C189.058 24.3521 189.714 25.7121 190.898 26.8321C192.114 27.9201 193.522 28.4641 195.122 28.4641H220.658C221.938 28.4641 223.122 28.1441 224.21 27.5041L229.538 24.4321V25.6801ZM195.122 15.9841C193.522 15.9841 192.114 16.5441 190.898 17.6641C189.714 18.7521 189.058 20.0801 188.93 21.6481H214.562C215.81 21.6481 216.994 21.3441 218.114 20.7361L221.618 18.6721L226.322 15.9841H195.122Z" fill="#4A4C4E"/>
<path d="M176.985 23.376L168.201 28.464L160.953 32.64C159.865 33.28 158.681 33.6 157.401 33.6H147.705C144.569 33.6 141.881 32.496 139.641 30.288C137.433 28.048 136.329 25.36 136.329 22.224C136.329 19.088 137.433 16.416 139.641 14.208C141.881 11.968 144.569 10.848 147.705 10.848H176.985V0H182.121V33.6H176.985V23.376ZM147.705 28.464H164.073C165.353 28.464 166.537 28.144 167.625 27.504L173.433 24.144C174.585 23.504 175.465 22.656 176.073 21.6C176.681 20.512 176.985 19.312 176.985 18V15.984H147.705C146.585 15.984 145.545 16.272 144.585 16.848C143.625 17.392 142.857 18.144 142.281 19.104C141.737 20.064 141.465 21.104 141.465 22.224C141.465 23.92 142.073 25.392 143.289 26.64C144.537 27.856 146.009 28.464 147.705 28.464Z" fill="#4A4C4E"/>
<path d="M129.568 23.3761L120.784 28.4641L113.536 32.6401C112.448 33.2801 111.264 33.6001 109.984 33.6001H100.288C97.1521 33.6001 94.4641 32.4961 92.2241 30.2881C90.0161 28.0481 88.9121 25.3601 88.9121 22.2241C88.9121 19.0881 90.0161 16.4161 92.2241 14.2081C94.4641 11.9681 97.1521 10.8481 100.288 10.8481H134.704V33.6001H129.568V23.3761ZM100.288 28.4641H116.656C117.936 28.4641 119.12 28.1441 120.208 27.5041L126.016 24.1441C126.784 23.7281 127.424 23.2161 127.936 22.6081C128.48 21.9681 128.88 21.2641 129.136 20.4961C129.424 19.6961 129.568 18.8641 129.568 18.0001V15.9841H100.288C99.4561 15.9841 98.6561 16.1441 97.8881 16.4641C97.1201 16.7841 96.4481 17.2321 95.8721 17.8081C95.3281 18.3521 94.8801 19.0241 94.5281 19.8241C94.2081 20.5921 94.0481 21.3921 94.0481 22.2241C94.0481 23.9201 94.6561 25.3921 95.8721 26.6401C97.1201 27.8561 98.5921 28.4641 100.288 28.4641Z" fill="#4A4C4E"/>
<path d="M51.2062 21.0721L60.0382 15.9841L67.2863 11.8081C68.3743 11.1681 69.5583 10.8481 70.8383 10.8481H89.9903V15.9841H64.1183C62.8383 15.9841 61.6543 16.3041 60.5663 16.9441L54.7583 20.2561C53.6383 20.9281 52.7583 21.8081 52.1183 22.8961C51.5103 23.9521 51.2062 25.1201 51.2062 26.4001V33.6001H46.0703V10.8481H51.2062V21.0721Z" fill="#4A4C4E"/>
<path d="M11.088 0.960002C12.144 0.320001 13.296 0 14.544 0H45.792V5.136H26.208V33.6H21.072V5.136H7.872C6.624 5.136 5.456 5.456 4.368 6.096L0 8.592V7.344L3.84 5.136L11.088 0.960002Z" fill="#4A4C4E"/>
</svg>
