<svg xmlns="http://www.w3.org/2000/svg" viewBox="0 0 760 760" role="img" aria-labelledby="title desc">
  <title id="title">GateZero primary stacked lockup</title>
  <desc id="desc">Stacked GateZero lockup with TF falcon symbol, wordmark, and restrained evidence-first tagline.</desc>
  <defs>
    <mask id="falcon-cut">
      <rect width="512" height="512" fill="white"/>
      <path d="M292 141H405L363 174L404 190L315 207L284 248L266 184Z" fill="black"/>
    </mask>
  </defs>
  <rect width="760" height="760" fill="none"/>
  <g transform="translate(184 68) scale(.77)">
    <path d="M398 118A190 190 0 1 1 124 111" fill="none" stroke="#008980" stroke-width="24" stroke-linecap="round"/>
    <path d="M400 118A190 190 0 0 1 421 163" fill="none" stroke="#E76F0E" stroke-width="14" stroke-linecap="round"/>
    <g mask="url(#falcon-cut)">
      <path d="M102 116H404L385 178H296V406H220V178H102Z" fill="#081934"/>
      <path d="M296 218H405L388 276H296Z" fill="#081934"/>
    </g>
    <path d="M355 173L382 184L331 194Z" fill="#008980"/>
    <path d="M329 169H344L336 178Z" fill="#E76F0E"/>
  </g>
  <text x="380" y="568" text-anchor="middle" fill="#081934" font-family="Space Grotesk, Inter, Arial, sans-serif" font-size="74" font-weight="700" letter-spacing="5">GATEZERO</text>
  <text x="380" y="628" text-anchor="middle" fill="#5C6878" font-family="Inter, Arial, sans-serif" font-size="24" font-weight="600" letter-spacing="4">FRAME THE MARKET. CONTROL THE RISK.</text>
  <rect x="237" y="656" width="218" height="8" fill="#008980"/>
  <rect x="469" y="656" width="54" height="8" fill="#E76F0E"/>
</svg>
