<svg xmlns="http://www.w3.org/2000/svg" viewBox="0 0 1180 320" role="img" aria-labelledby="title desc">
  <title id="title">GateZero dark-background lockup</title>
  <desc id="desc">GateZero lockup on deep purple background.</desc>
  <defs>
    <linearGradient id="bg" x1="0" y1="0" x2="1180" y2="320" gradientUnits="userSpaceOnUse"><stop offset="0" stop-color="#1A1028"/><stop offset="1" stop-color="#070011"/></linearGradient>
    <linearGradient id="violet" x1="292" y1="118" x2="430" y2="404" gradientUnits="userSpaceOnUse"><stop offset="0" stop-color="#5B35FF"/><stop offset="1" stop-color="#7C5CFF"/></linearGradient>
    <linearGradient id="facet" x1="252" y1="248" x2="328" y2="430" gradientUnits="userSpaceOnUse"><stop offset="0" stop-color="#A78CFF"/><stop offset="1" stop-color="#4820C8"/></linearGradient>
  </defs>
  <rect width="1180" height="320" fill="url(#bg)"/>
  <g transform="translate(38 44) scale(.47)">
    <path d="M142 176L258 106V172L190 214V322L258 362V428L142 362Z" fill="#FFFFFF"/>
    <path d="M258 106L414 198L338 244L258 172Z" fill="url(#violet)"/>
    <path d="M224 270L258 250L292 270V426L258 448L224 426Z" fill="#FFFFFF"/>
    <path d="M258 250L292 270L276 322L258 314Z" fill="url(#facet)"/>
    <path d="M292 270H410V366L330 414V348L368 326V306H292Z" fill="url(#violet)"/>
    <path d="M292 426L330 414L292 348Z" fill="url(#facet)" opacity=".82"/>
    <circle cx="247" cy="326" r="13" fill="#1A1028"/>
    <path d="M242 338H252L256 366H238Z" fill="#1A1028"/>
  </g>
  <line x1="268" y1="82" x2="268" y2="238" stroke="#7C5CFF" stroke-width="2" opacity=".55"/>
  <text x="310" y="156" fill="#FFFFFF" font-family="Raleway, Space Grotesk, Inter, Arial, sans-serif" font-size="66" font-weight="800" letter-spacing="10">GATE</text>
  <text x="676" y="156" fill="#7C5CFF" font-family="Raleway, Space Grotesk, Inter, Arial, sans-serif" font-size="66" font-weight="800" letter-spacing="10">ZERO</text>
  <text x="314" y="212" fill="#FFFFFF" font-family="Inter, Arial, sans-serif" font-size="22" font-weight="500">Evidence in.</text>
  <text x="438" y="212" fill="#7C5CFF" font-family="Inter, Arial, sans-serif" font-size="22" font-weight="700">Risk approved.</text>
  <text x="610" y="212" fill="#FFFFFF" font-family="Inter, Arial, sans-serif" font-size="22" font-weight="500">Execution controlled.</text>
</svg>
