<svg xmlns="http://www.w3.org/2000/svg" viewBox="0 0 512 512" role="img" aria-labelledby="title desc">
  <title id="title">GateZero symbol</title>
  <desc id="desc">Angular dimensional G mark with an inner gate and keyhole for the GateZero brand.</desc>
  <defs>
    <linearGradient id="gz-dark" x1="128" y1="112" x2="286" y2="426" gradientUnits="userSpaceOnUse">
      <stop offset="0" stop-color="#1A1028"/>
      <stop offset="1" stop-color="#070011"/>
    </linearGradient>
    <linearGradient id="gz-violet" x1="292" y1="118" x2="430" y2="404" gradientUnits="userSpaceOnUse">
      <stop offset="0" stop-color="#5B35FF"/>
      <stop offset="1" stop-color="#7C5CFF"/>
    </linearGradient>
    <linearGradient id="gz-facet" x1="252" y1="248" x2="328" y2="430" gradientUnits="userSpaceOnUse">
      <stop offset="0" stop-color="#A78CFF"/>
      <stop offset="1" stop-color="#4820C8"/>
    </linearGradient>
  </defs>
  <path d="M142 176L258 106V172L190 214V322L258 362V428L142 362Z" fill="url(#gz-dark)"/>
  <path d="M258 106L414 198L338 244L258 172Z" fill="url(#gz-violet)"/>
  <path d="M224 270L258 250L292 270V426L258 448L224 426Z" fill="url(#gz-dark)"/>
  <path d="M258 250L292 270L276 322L258 314Z" fill="url(#gz-facet)"/>
  <path d="M292 270H410V366L330 414V348L368 326V306H292Z" fill="url(#gz-violet)"/>
  <path d="M292 426L330 414L292 348Z" fill="url(#gz-facet)" opacity=".82"/>
  <circle cx="247" cy="326" r="13" fill="#FFFFFF"/>
  <path d="M242 338H252L256 366H238Z" fill="#FFFFFF"/>
</svg>
